<svg width="25" height="22" viewBox="0 0 25 22" fill="none" xmlns="http://www.w3.org/2000/svg">
<path d="M8.28254 21.4201C9.26837 21.4201 10.0675 20.6209 10.0675 19.6351C10.0675 18.6493 9.26837 17.8501 8.28254 17.8501C7.29671 17.8501 6.49753 18.6493 6.49753 19.6351C6.49753 20.6209 7.29671 21.4201 8.28254 21.4201Z" fill="#F5F5F5"/>
<path d="M20.7776 21.4201C21.7634 21.4201 22.5626 20.6209 22.5626 19.6351C22.5626 18.6493 21.7634 17.8501 20.7776 17.8501C19.7918 17.8501 18.9926 18.6493 18.9926 19.6351C18.9926 20.6209 19.7918 21.4201 20.7776 21.4201Z" fill="#F5F5F5"/>
<path d="M24.0241 3.27438C23.8233 2.97873 23.5221 2.77234 23.1706 2.7054C23.087 2.68867 22.9977 2.67751 22.9085 2.67751H5.93414L5.59387 0.736316C5.52135 0.312376 5.14762 0 4.71252 0H1.1425C0.651627 0 0.25 0.401627 0.25 0.892504C0.25 1.38338 0.651627 1.78501 1.1425 1.78501H3.96505L6.51427 16.2213C6.58678 16.6452 6.96052 16.9576 7.39561 16.9576H21.6757C22.1666 16.9576 22.5682 16.556 22.5682 16.0651C22.5682 15.5742 22.1666 15.1726 21.6757 15.1726H8.13751L7.82513 13.3876H21.3075C21.9434 13.3876 22.4957 12.9357 22.6184 12.311L24.2249 4.27844C24.2918 3.92702 24.2249 3.57002 24.0241 3.27438ZM20.9394 11.6026H7.50718L6.24651 4.46252H22.3618L20.9394 11.6026Z" fill="#F5F5F5"/>
</svg>
