<svg width="120" height="120" viewBox="0 0 120 120" fill="none" xmlns="http://www.w3.org/2000/svg">
<path d="M62.25 94.5C87.517 94.5 108 92.8211 108 90.75C108 88.6789 87.517 87 62.25 87C36.983 87 16.5 88.6789 16.5 90.75C16.5 92.8211 36.983 94.5 62.25 94.5Z" fill="#F5F5F5"/>
<path fill-rule="evenodd" clip-rule="evenodd" d="M44.2897 25.5L40.4767 28.8021L36.6638 25.5H36.6241C36.6241 25.5 42.6922 70.7778 28.9191 90.4417C26.5116 93.8789 22.8652 94.8445 22.8652 94.8445H79.0012C79.0012 94.8445 81.5469 94.9796 83.9544 91.5424C97.7274 71.8785 92.7601 25.5 92.7601 25.5H92.5736L87.8074 28.8021L83.0412 25.5H82.8151L79.0021 28.8021L75.1891 25.5H75.1097L71.2967 28.8021L67.4838 25.5H67.4051L63.5921 28.8021L59.7792 25.5H59.6997L55.8867 28.8021L52.0738 25.5H51.9951L48.1821 28.8021L44.3692 25.5H44.2897Z" fill="#FEFFFF"/>
<mask id="mask0_28_36356" style="mask-type:luminance" maskUnits="userSpaceOnUse" x="22" y="25" width="72" height="70">
<path fill-rule="evenodd" clip-rule="evenodd" d="M44.2897 25.5L40.4767 28.8021L36.6638 25.5H36.6241C36.6241 25.5 42.6922 70.7778 28.9191 90.4417C26.5116 93.8789 22.8652 94.8445 22.8652 94.8445H79.0012C79.0012 94.8445 81.5469 94.9796 83.9544 91.5424C97.7274 71.8785 92.7601 25.5 92.7601 25.5H92.5736L87.8074 28.8021L83.0412 25.5H82.8151L79.0021 28.8021L75.1891 25.5H75.1097L71.2967 28.8021L67.4838 25.5H67.4051L63.5921 28.8021L59.7792 25.5H59.6997L55.8867 28.8021L52.0738 25.5H51.9951L48.1821 28.8021L44.3692 25.5H44.2897Z" fill="#E5B89E"/>
</mask>
<g mask="url(#mask0_28_36356)">
<path d="M40.4767 28.8021L39.8221 29.558L40.4767 30.125L41.1314 29.558L40.4767 28.8021ZM44.2897 25.5V24.5H43.9169L43.635 24.7441L44.2897 25.5ZM36.6638 25.5L37.3184 24.7441L37.0366 24.5H36.6637L36.6638 25.5ZM36.6241 25.5L36.624 24.5L35.4811 24.5001L35.6329 25.6328L36.6241 25.5ZM22.8652 94.8445L22.6093 93.8778L22.8652 95.8445V94.8445ZM79.0012 94.8445L79.0543 93.8459L79.0278 93.8445H79.0012V94.8445ZM92.7601 25.5L93.7544 25.3935L93.6587 24.5H92.7601V25.5ZM92.5736 25.5V24.5H92.261L92.0041 24.678L92.5736 25.5ZM87.8074 28.8021L87.2379 29.6241L87.8074 30.0187L88.3769 29.6241L87.8074 28.8021ZM83.0412 25.5L83.6107 24.678L83.3538 24.5H83.0412V25.5ZM82.8151 25.5V24.5H82.4422L82.1604 24.7441L82.8151 25.5ZM79.0021 28.8021L78.3474 29.558L79.0021 30.125L79.6568 29.558L79.0021 28.8021ZM75.1891 25.5L75.8438 24.7441L75.562 24.5H75.1891V25.5ZM75.1097 25.5V24.5H74.7368L74.455 24.7441L75.1097 25.5ZM71.2967 28.8021L70.6421 29.558L71.2967 30.125L71.9514 29.558L71.2967 28.8021ZM67.4838 25.5L68.1384 24.7441L67.8566 24.5H67.4838V25.5ZM67.4051 25.5V24.5H67.0322L66.7504 24.7441L67.4051 25.5ZM63.5921 28.8021L62.9375 29.558L63.5921 30.125L64.2468 29.558L63.5921 28.8021ZM59.7792 25.5L60.4338 24.7441L60.152 24.5H59.7792V25.5ZM59.6997 25.5V24.5H59.3269L59.045 24.7441L59.6997 25.5ZM55.8867 28.8021L55.2321 29.558L55.8867 30.125L56.5414 29.558L55.8867 28.8021ZM52.0738 25.5L52.7284 24.7441L52.4466 24.5H52.0738V25.5ZM51.9951 25.5V24.5H51.6223L51.3404 24.7441L51.9951 25.5ZM48.1821 28.8021L47.5275 29.558L48.1821 30.125L48.8368 29.558L48.1821 28.8021ZM44.3692 25.5L45.0238 24.7441L44.742 24.5H44.3692V25.5ZM41.1314 29.558L44.9443 26.2559L43.635 24.7441L39.8221 28.0462L41.1314 29.558ZM36.0091 26.2559L39.8221 29.558L41.1314 28.0462L37.3184 24.7441L36.0091 26.2559ZM36.6241 26.5H36.6639L36.6637 24.5H36.624L36.6241 26.5ZM29.7382 91.0154C33.2951 85.9372 35.5342 79.2661 36.915 72.1903C38.2981 65.1027 38.8335 57.536 38.9364 50.6117C39.0392 43.6842 38.7093 37.378 38.354 32.8044C38.1763 30.517 37.992 28.6611 37.852 27.3757C37.782 26.7329 37.723 26.2326 37.6815 25.8921C37.6607 25.7218 37.6442 25.5915 37.6329 25.5033C37.6273 25.4592 37.6229 25.4256 37.6199 25.4029C37.6184 25.3915 37.6173 25.3828 37.6165 25.3768C37.6161 25.3738 37.6158 25.3715 37.6156 25.3699C37.6155 25.3691 37.6154 25.3684 37.6153 25.368C37.6152 25.3675 37.6152 25.3672 36.6241 25.5C35.6329 25.6328 35.6329 25.6326 35.6329 25.6328C35.633 25.6331 35.633 25.6336 35.6331 25.6342C35.6333 25.6354 35.6335 25.6372 35.6338 25.6397C35.6345 25.6447 35.6355 25.6525 35.6369 25.6629C35.6396 25.6838 35.6438 25.7155 35.6492 25.7577C35.66 25.842 35.6759 25.9683 35.6962 26.1345C35.7368 26.4669 35.7948 26.9585 35.8638 27.5922C36.0018 28.8597 36.184 30.6948 36.36 32.9594C36.712 37.4899 37.0383 43.7321 36.9366 50.582C36.8348 57.4352 36.3048 64.8749 34.952 71.8073C33.5969 78.7516 31.4297 85.1142 28.1 89.868L29.7382 91.0154ZM22.8652 94.8445C23.1212 95.8112 23.1216 95.8111 23.1219 95.811C23.1217 95.811 23.1221 95.8109 23.1219 95.811C23.1225 95.8108 23.1239 95.8104 23.1246 95.8103C23.126 95.8099 23.1275 95.8095 23.1293 95.809C23.1329 95.808 23.1374 95.8068 23.1428 95.8053C23.1535 95.8023 23.1677 95.7983 23.1852 95.7933C23.2202 95.7831 23.2685 95.7687 23.3289 95.7495C23.4498 95.7112 23.6194 95.6539 23.8279 95.5747C24.2444 95.4164 24.8195 95.169 25.4736 94.807C26.7783 94.0849 28.4238 92.8919 29.7382 91.0154L28.1 89.868C27.0069 91.4287 25.6255 92.4371 24.5051 93.0571C23.9467 93.3662 23.4597 93.575 23.1173 93.7052C22.9464 93.7701 22.8123 93.8152 22.7243 93.8431C22.6803 93.857 22.648 93.8667 22.6284 93.8723C22.6186 93.8752 22.6125 93.8769 22.6093 93.8778C22.6077 93.8783 22.6064 93.8786 22.6064 93.8785C22.6059 93.8787 22.6065 93.8785 22.6064 93.8785C22.6066 93.8785 22.6077 93.8782 22.6081 93.8781C22.6082 93.8781 22.6092 93.8778 22.6093 93.8778C22.6096 93.8777 22.6093 93.8778 22.8652 94.8445ZM79.0012 93.8445H22.8652V95.8445H79.0012V93.8445ZM83.1353 90.9687C82.0359 92.5384 80.9446 93.2408 80.1859 93.5612C79.802 93.7234 79.4908 93.7929 79.2897 93.8227C79.189 93.8377 79.1157 93.8427 79.0747 93.8444C79.0543 93.8452 79.0419 93.8452 79.0383 93.8452C79.0364 93.8452 79.0368 93.8452 79.0394 93.8452C79.0408 93.8453 79.0427 93.8453 79.0451 93.8455C79.0464 93.8455 79.0477 93.8456 79.0493 93.8456C79.05 93.8457 79.0508 93.8457 79.0516 93.8458C79.0521 93.8458 79.0527 93.8458 79.0529 93.8458C79.0536 93.8459 79.0543 93.8459 79.0012 94.8445C78.9482 95.8431 78.9489 95.8431 78.9496 95.8431C78.9499 95.8432 78.9506 95.8432 78.9511 95.8432C78.9521 95.8433 78.9531 95.8433 78.9542 95.8434C78.9563 95.8435 78.9586 95.8436 78.9611 95.8437C78.966 95.8439 78.9716 95.8441 78.9778 95.8443C78.9902 95.8447 79.0052 95.845 79.0226 95.8451C79.0574 95.8454 79.1021 95.8449 79.1559 95.8428C79.2635 95.8384 79.408 95.8271 79.5835 95.801C79.935 95.7488 80.4107 95.6373 80.9641 95.4036C82.0801 94.9323 83.4654 93.9836 84.7735 92.1161L83.1353 90.9687ZM92.7601 25.5C91.7657 25.6065 91.7658 25.6065 91.7658 25.6067C91.7658 25.607 91.7658 25.6074 91.7659 25.608C91.766 25.6091 91.7662 25.611 91.7665 25.6136C91.7671 25.6188 91.7679 25.6268 91.769 25.6375C91.7713 25.659 91.7746 25.6915 91.779 25.7347C91.7878 25.8213 91.8007 25.9508 91.817 26.1211C91.8497 26.4617 91.896 26.9654 91.9501 27.6143C92.0583 28.9123 92.1978 30.7909 92.3225 33.1076C92.5718 37.7424 92.7613 44.1237 92.5227 51.1131C92.284 58.1057 91.6173 65.6859 90.1615 72.725C88.703 79.777 86.4671 86.2119 83.1353 90.9687L84.7735 92.1161C88.3282 87.0409 90.6363 80.3045 92.1201 73.1301C93.6065 65.9427 94.2805 58.2413 94.5215 51.1813C94.7627 44.1181 94.5712 37.6758 94.3196 33.0002C94.1937 30.6616 94.0528 28.7633 93.9431 27.4482C93.8883 26.7905 93.8413 26.2786 93.8079 25.9302C93.7912 25.7561 93.7779 25.6227 93.7688 25.5325C93.7642 25.4874 93.7606 25.4531 93.7582 25.4299C93.757 25.4182 93.7561 25.4094 93.7554 25.4033C93.7551 25.4003 93.7548 25.3979 93.7547 25.3963C93.7546 25.3955 93.7544 25.3939 93.7544 25.3935C93.7543 25.3929 93.7544 25.3935 92.7601 25.5ZM92.5736 26.5H92.76L92.7601 24.5H92.5736V26.5ZM92.0041 24.678L87.2379 27.9801L88.3769 29.6241L93.1431 26.322L92.0041 24.678ZM88.3769 27.9801L83.6107 24.678L82.4717 26.322L87.2379 29.6241L88.3769 27.9801ZM82.8151 26.5H83.0412V24.5H82.8151V26.5ZM79.6568 29.558L83.4697 26.2559L82.1604 24.7441L78.3474 28.0462L79.6568 29.558ZM74.5345 26.2559L78.3474 29.558L79.6568 28.0462L75.8438 24.7441L74.5345 26.2559ZM75.1097 26.5H75.1891V24.5H75.1097V26.5ZM74.455 24.7441L70.6421 28.0462L71.9514 29.558L75.7643 26.2559L74.455 24.7441ZM71.9514 28.0462L68.1384 24.7441L66.8291 26.2559L70.6421 29.558L71.9514 28.0462ZM67.4051 26.5H67.4838V24.5H67.4051V26.5ZM64.2468 29.558L68.0597 26.2559L66.7504 24.7441L62.9375 28.0462L64.2468 29.558ZM59.1245 26.2559L62.9375 29.558L64.2468 28.0462L60.4338 24.7441L59.1245 26.2559ZM59.6997 26.5H59.7792V24.5H59.6997V26.5ZM59.045 24.7441L55.2321 28.0462L56.5414 29.558L60.3543 26.2559L59.045 24.7441ZM56.5414 28.0462L52.7284 24.7441L51.4191 26.2559L55.2321 29.558L56.5414 28.0462ZM51.9951 26.5H52.0738V24.5H51.9951V26.5ZM48.8368 29.558L52.6497 26.2559L51.3404 24.7441L47.5275 28.0462L48.8368 29.558ZM43.7145 26.2559L47.5275 29.558L48.8368 28.0462L45.0238 24.7441L43.7145 26.2559ZM44.2897 26.5H44.3692V24.5H44.2897V26.5Z" fill="#00E599"/>
</g>
<path opacity="0.11" d="M21.219 75.3779H70.912C70.912 75.3779 68.7172 77.4271 69.5013 84.087C70.4065 91.7753 72.9612 94.8453 72.9612 94.8453H26.7243C26.7243 94.8453 18.1519 91.7753 17.2467 84.087C16.7251 79.6563 21.219 75.3779 21.219 75.3779Z" fill="#00AF92"/>
<path d="M12.9661 72H69.52C69.52 72 68.1238 78.6168 68.6884 83.25C69.668 91.2897 79.5 94.5 79.5 94.5H22.3918C22.3918 94.5 13.1141 91.2897 12.1344 83.25C11.5699 78.6168 12.9661 72 12.9661 72Z" fill="#00AF92"/>
<path d="M44.0266 40.0993C44.2067 39.4497 44.798 39 45.4721 39H76.0275C77.0191 39 77.7379 39.9451 77.473 40.9007C77.2929 41.5503 76.7016 42 76.0275 42H45.4721C44.4805 42 43.7617 41.0549 44.0266 40.0993Z" fill="#00E599"/>
<path d="M42.5629 46.0785C42.7501 45.4392 43.3364 45 44.0024 45H53.498C54.4986 45 55.2187 45.9612 54.9375 46.9215C54.7503 47.5608 54.164 48 53.498 48H44.0024C43.0018 48 42.2817 47.0388 42.5629 46.0785Z" fill="#00E599"/>
<path fill-rule="evenodd" clip-rule="evenodd" d="M72.451 57.4352C72.3433 57.1296 72.5036 56.7946 72.8092 56.6869L77.2356 55.1263L75.675 50.6999C75.5673 50.3943 75.7276 50.0593 76.0332 49.9515C76.3388 49.8438 76.6739 50.0042 76.7816 50.3098L78.3422 54.7361L82.7685 53.1756C83.0741 53.0678 83.4092 53.2282 83.5169 53.5338C83.6246 53.8394 83.4642 54.1744 83.1587 54.2821L78.7323 55.8427L80.2929 60.2691C80.4006 60.5747 80.2402 60.9097 79.9347 61.0175C79.6291 61.1252 79.294 60.9648 79.1863 60.6592L77.6257 56.2329L73.1994 57.7934C72.8938 57.9012 72.5587 57.7408 72.451 57.4352Z" fill="#00E599"/>
<path fill-rule="evenodd" clip-rule="evenodd" d="M85.671 64.9826C85.7655 64.7159 86.0799 64.5839 86.3733 64.6878L95.9351 68.0735C96.2285 68.1773 96.3897 68.4778 96.2953 68.7445C96.2009 69.0112 95.8865 69.1432 95.5931 69.0393L86.0313 65.6536C85.7379 65.5498 85.5766 65.2493 85.671 64.9826Z" fill="#00E599"/>
</svg>
