<svg width="25" height="24" viewBox="0 0 25 24" fill="none" xmlns="http://www.w3.org/2000/svg">
<path d="M4.491 1.408L22.953 11.562C23.0314 11.6052 23.0968 11.6686 23.1423 11.7456C23.1878 11.8227 23.2118 11.9105 23.2118 12C23.2118 12.0895 23.1878 12.1773 23.1423 12.2544C23.0968 12.3314 23.0314 12.3948 22.953 12.438L4.491 22.592C4.41487 22.6339 4.32915 22.6552 4.24227 22.6539C4.1554 22.6525 4.07037 22.6286 3.99558 22.5843C3.92078 22.5401 3.8588 22.4772 3.81573 22.4017C3.77267 22.3263 3.75001 22.2409 3.75 22.154V1.846C3.75001 1.75911 3.77267 1.67373 3.81573 1.59827C3.8588 1.52281 3.92078 1.45987 3.99558 1.41566C4.07037 1.37144 4.1554 1.34749 4.24227 1.34614C4.32915 1.3448 4.41487 1.36612 4.491 1.408ZM5.75 13V19.617L19.6 12L5.75 4.383V11H10.75V13H5.75Z" fill="white"/>
</svg>
