<svg width="16" height="17" viewBox="0 0 16 17" fill="none" xmlns="http://www.w3.org/2000/svg">
<path d="M12.0207 11.578L14.876 14.4326L13.9327 15.376L11.078 12.5206C10.0158 13.3721 8.69468 13.8352 7.33334 13.8333C4.02134 13.8333 1.33334 11.1453 1.33334 7.83331C1.33334 4.52131 4.02134 1.83331 7.33334 1.83331C10.6453 1.83331 13.3333 4.52131 13.3333 7.83331C13.3353 9.19465 12.8722 10.5158 12.0207 11.578ZM10.6833 11.0833C11.5294 10.2132 12.0019 9.04693 12 7.83331C12 5.25465 9.91134 3.16665 7.33334 3.16665C4.75468 3.16665 2.66668 5.25465 2.66668 7.83331C2.66668 10.4113 4.75468 12.5 7.33334 12.5C8.54696 12.5019 9.71327 12.0294 10.5833 11.1833L10.6833 11.0833Z" fill="#797979"/>
</svg>
