<svg width="24" height="24" viewBox="0 0 24 24" fill="none" xmlns="http://www.w3.org/2000/svg">
<path d="M20.259 22.592L1.797 12.438C1.71861 12.3948 1.65323 12.3314 1.6077 12.2544C1.56217 12.1773 1.53815 12.0895 1.53815 12C1.53815 11.9105 1.56217 11.8227 1.6077 11.7456C1.65323 11.6686 1.71861 11.6052 1.797 11.562L20.259 1.408C20.3351 1.36612 20.4209 1.3448 20.5077 1.34615C20.5946 1.34749 20.6796 1.37145 20.7544 1.41566C20.8292 1.45987 20.8912 1.52281 20.9343 1.59827C20.9773 1.67373 21 1.75912 21 1.846L21 22.154C21 22.2409 20.9773 22.3263 20.9343 22.4017C20.8912 22.4772 20.8292 22.5401 20.7544 22.5843C20.6796 22.6286 20.5946 22.6525 20.5077 22.6539C20.4209 22.6552 20.3351 22.6339 20.259 22.592ZM19 11L19 4.383L5.15 12L19 19.617V13H14L14 11H19Z" fill="white"/>
</svg>
