<svg width="32" height="32" viewBox="0 0 32 32" fill="none" xmlns="http://www.w3.org/2000/svg">
<rect width="32" height="32" rx="8" fill="#EBEEF7"/>
<g clip-path="url(#clip0_1_331)">
<path d="M10.494 8.93868L22.802 15.708C22.8543 15.7368 22.8978 15.7791 22.9282 15.8304C22.9586 15.8818 22.9746 15.9403 22.9746 16C22.9746 16.0597 22.9586 16.1182 22.9282 16.1696C22.8978 16.221 22.8543 16.2632 22.802 16.292L10.494 23.0613C10.4432 23.0893 10.3861 23.1035 10.3282 23.1026C10.2703 23.1017 10.2136 23.0857 10.1637 23.0562C10.1139 23.0268 10.0725 22.9848 10.0438 22.9345C10.0151 22.8842 10 22.8273 10 22.7693V9.23068C10 9.17275 10.0151 9.11583 10.0438 9.06552C10.0725 9.01521 10.1139 8.97326 10.1637 8.94378C10.2136 8.91431 10.2703 8.89833 10.3282 8.89744C10.3861 8.89654 10.4432 8.91076 10.494 8.93868ZM11.3333 16.6667V21.078L20.5667 16L11.3333 10.922V15.3333H14.6667V16.6667H11.3333Z" fill="#0E1B4D"/>
</g>
<defs>
<clipPath id="clip0_1_331">
<rect width="16" height="16" fill="white" transform="translate(8 8)"/>
</clipPath>
</defs>
</svg>
