<svg width="16" height="17" viewBox="0 0 16 17" fill="none" xmlns="http://www.w3.org/2000/svg">
<path d="M14.6667 5.83333H8.66668C8.48987 5.83333 8.3203 5.90357 8.19527 6.0286C8.07025 6.15362 8.00001 6.32319 8.00001 6.5V10.5C8.00001 10.6768 8.07025 10.8464 8.19527 10.9714C8.3203 11.0964 8.48987 11.1667 8.66668 11.1667H14.6667V13.8333C14.6667 14.0101 14.5964 14.1797 14.4714 14.3047C14.3464 14.4298 14.1768 14.5 14 14.5H2.00001C1.8232 14.5 1.65363 14.4298 1.52861 14.3047C1.40358 14.1797 1.33334 14.0101 1.33334 13.8333V3.16667C1.33334 2.98986 1.40358 2.82029 1.52861 2.69526C1.65363 2.57024 1.8232 2.5 2.00001 2.5H14C14.1768 2.5 14.3464 2.57024 14.4714 2.69526C14.5964 2.82029 14.6667 2.98986 14.6667 3.16667V5.83333ZM10 7.83333H12V9.16667H10V7.83333Z" fill="white"/>
</svg>
